<?xml version="1.0" encoding="utf-8"?>
<!-- Generator: Adobe Illustrator 24.2.3, SVG Export Plug-In . SVG Version: 6.00 Build 0)  -->
<svg version="1.1" id="Layer_1" xmlns="http://www.w3.org/2000/svg" xmlns:xlink="http://www.w3.org/1999/xlink" x="0px" y="0px"
	 viewBox="0 0 2640 2580" enable-background="new 0 0 2640 2580" xml:space="preserve">
<g>
	<path fill="#3EA8D4" stroke="#3EA8D4" stroke-width="42" stroke-miterlimit="10" d="M528.2,1199.2c-72.9-72.9-72.9-191.1,0-264
		l749.1-749.1l-44.9-44.9c-72.9-72.9-191.1-72.9-264,0l-794,794c-72.9,72.9-72.9,191.1,0,264l794,794c72.9,72.9,191.1,72.9,264,0
		l44.9-44.9L528.2,1199.2z"/>
	<path fill="#3EA8D4" stroke="#3EA8D4" stroke-width="42" stroke-miterlimit="10" d="M2143.8,1380.8c72.9,72.9,72.9,191.1,0,264
		l-749.1,749.1l44.9,44.9c72.9,72.9,191.1,72.9,264,0l794-794c72.9-72.9,72.9-191.1,0-264l-794-794c-72.9-72.9-191.1-72.9-264,0
		l-44.9,44.9L2143.8,1380.8z"/>
	<path fill="#3D3D3D" stroke="#3D3D3D" stroke-width="42" stroke-miterlimit="10" d="M1232.4,2099c-72.9,72.9-191.1,72.9-264,0
		L219.3,1350l-44.9,44.9c-72.9,72.9-72.9,191.1,0,264l794,794c72.9,72.9,191.1,72.9,264,0l794-794c72.9-72.9,72.9-191.1,0-264
		l-44.9-44.9L1232.4,2099z"/>
	<path fill="#3D3D3D" stroke="#3D3D3D" stroke-width="42" stroke-miterlimit="10" d="M1427.9,481c72.9-72.9,191.1-72.9,264,0
		L2441,1230l44.9-44.9c72.9-72.9,72.9-191.1,0-264l-794-794c-72.9-72.9-191.1-72.9-264,0l-794,794c-72.9,72.9-72.9,191.1,0,264
		l44.9,44.9L1427.9,481z"/>
</g>
</svg>