<?xml version="1.0" encoding="utf-8"?>
<!-- Generator: Adobe Illustrator 24.2.3, SVG Export Plug-In . SVG Version: 6.00 Build 0)  -->
<svg version="1.1" id="Layer_1" xmlns="http://www.w3.org/2000/svg" xmlns:xlink="http://www.w3.org/1999/xlink" x="0px" y="0px"
	 viewBox="0 0 2220 590" enable-background="new 0 0 2220 590" xml:space="preserve">
<g>
	<path fill="#3EA8D4" stroke="#3EA8D4" stroke-width="5" stroke-miterlimit="10" d="M109.6,274.5c-16.6-16.6-16.6-43.6,0-60.2
		L280.3,43.6l-10.2-10.2c-16.6-16.6-43.6-16.6-60.2,0l-181,181c-16.6,16.6-16.6,43.6,0,60.2l181,181c16.6,16.6,43.6,16.6,60.2,0
		l10.2-10.2L109.6,274.5z"/>
	<path fill="#3EA8D4" stroke="#3EA8D4" stroke-width="5" stroke-miterlimit="10" d="M477.8,315.9c16.6,16.6,16.6,43.6,0,60.2
		L307.1,546.8l10.2,10.2c16.6,16.6,43.6,16.6,60.2,0l181-181c16.6-16.6,16.6-43.6,0-60.2l-181-181c-16.6-16.6-43.6-16.6-60.2,0
		l-10.2,10.2L477.8,315.9z"/>
	<path fill="#3D3D3D" stroke="#3D3D3D" stroke-width="5" stroke-miterlimit="10" d="M270.1,479.6c-16.6,16.6-43.6,16.6-60.2,0
		L39.2,308.9L29,319.1c-16.6,16.6-16.6,43.6,0,60.2l181,181c16.6,16.6,43.6,16.6,60.2,0l181-181c16.6-16.6,16.6-43.6,0-60.2
		l-10.2-10.2L270.1,479.6z"/>
	<path fill="#3D3D3D" stroke="#3D3D3D" stroke-width="5" stroke-miterlimit="10" d="M314.7,110.8c16.6-16.6,43.6-16.6,60.2,0
		l170.7,170.7l10.2-10.2c16.6-16.6,16.6-43.6,0-60.2l-181-181c-16.6-16.6-43.6-16.6-60.2,0l-181,181c-16.6,16.6-16.6,43.6,0,60.2
		l10.2,10.2L314.7,110.8z"/>
</g>
<path fill="#3D3D3D" d="M943.9,126.9c5,0,9.2,1.6,12.7,4.8c3.5,3.2,5.3,7,5.3,11.5v130.6c0,4.6-1.8,8.4-5.3,11.6
	c-3.5,3.2-7.7,4.7-12.7,4.7c-5,0-9.2-1.6-12.7-4.7c-3.5-3.2-5.3-7-5.3-11.6V143.3c0-4.5,1.8-8.4,5.3-11.5
	C934.7,128.5,938.9,126.9,943.9,126.9z"/>
<path fill="#3D3D3D" d="M1954.7,126.9c5,0,9.2,1.6,12.7,4.8c3.5,3.2,5.3,7,5.3,11.5v130.6c0,4.6-1.8,8.4-5.3,11.6
	c-3.5,3.2-7.7,4.7-12.7,4.7s-9.2-1.6-12.7-4.7c-3.5-3.2-5.3-7-5.3-11.6V143.3c0-4.5,1.8-8.4,5.3-11.5
	C1945.5,128.5,1949.7,126.9,1954.7,126.9z"/>
<path fill="#3DA8D4" d="M1184.5,380.1c3.7,0,6.8,1.2,9.4,3.5c2.6,2.3,3.9,5.2,3.9,8.5v96.1c0,3.4-1.3,6.2-3.9,8.5
	c-2.6,2.3-5.7,3.5-9.4,3.5c-3.7,0-6.8-1.2-9.4-3.5c-2.6-2.3-3.9-5.2-3.9-8.5v-96.1c0-3.3,1.3-6.1,3.9-8.5S1180.8,380.1,1184.5,380.1
	z"/>
<path fill="#3DA8D4" d="M1392.9,380.1c3.7,0,6.8,1.2,9.4,3.5s3.9,5.2,3.9,8.5v96.1c0,3.4-1.3,6.2-3.9,8.5c-2.6,2.3-5.7,3.5-9.4,3.5
	s-6.8-1.2-9.4-3.5c-2.6-2.3-3.9-5.2-3.9-8.5v-96.1c0-3.3,1.3-6.1,3.9-8.5C1386.1,381.3,1389.2,380.1,1392.9,380.1z"/>
<g>
	<path fill="#3D3D3D" d="M726.5,159.6L726.5,159.6l169.2,0c-1.6-9.2-6.4-17-14.3-23.2c-7.9-6.3-17.2-9.4-27.8-9.4H726.5
		c-10,0-18.5,3.2-25.5,9.6c-7,6.4-10.6,14.1-10.8,23.1v0H726.5z"/>
	<path fill="#3D3D3D" d="M726.5,182.6h-36.3v75c0.1,9.1,3.7,16.8,10.8,23.1c7,6.3,15.5,9.5,25.5,9.5h127.1c10.6,0,19.9-3.1,27.8-9.4
		c7.9-6.2,12.7-14,14.3-23.3H726.5V182.6z"/>
</g>
<g>
	<path fill="#3D3D3D" d="M1139.2,221l-117.7-90.4c-3.4-2.5-7.2-3.7-11.4-3.7c-5,0-9.2,1.6-12.7,4.8c-3.5,3.2-5.3,7-5.3,11.5v130.6
		c0,4.6,1.8,8.4,5.3,11.6c3.5,3.2,7.7,4.7,12.7,4.7c5,0,9.2-1.6,12.7-4.7c3.5-3.2,5.3-7,5.3-11.6v-95.5l111.1,85.4V221z"/>
	<path fill="#3D3D3D" d="M1180.2,126.9c5,0,9.2,1.6,12.7,4.8c3.5,3.2,5.3,7,5.3,11.5v130.6c0,4.6-1.8,8.4-5.3,11.6
		c-3.5,3.2-7.7,4.7-12.7,4.7c-5,0-9.2-1.6-12.7-4.7c-3.5-3.2-5.3-7-5.3-11.6V143.3c0-4.5,1.8-8.4,5.3-11.5
		C1170.9,128.5,1175.2,126.9,1180.2,126.9z"/>
</g>
<g>
	<path fill="#3D3D3D" d="M1264.7,159.6L1264.7,159.6l169.2,0c-1.6-9.2-6.4-17-14.3-23.2c-7.9-6.3-17.2-9.4-27.8-9.4h-127.1
		c-10,0-18.5,3.2-25.5,9.6c-7,6.4-10.6,14.1-10.8,23.1v0H1264.7z"/>
	<path fill="#3D3D3D" d="M1264.7,224.9h87.5c9.9,0,18.4-3.2,25.4-9.6c7-6.4,10.5-14.1,10.5-23.1h-123.3v-9.7h-36.3v75
		c0.1,9.1,3.7,16.8,10.8,23.1c7,6.3,15.5,9.5,25.5,9.5h127.1c10.6,0,19.9-3.1,27.8-9.4c7.9-6.2,12.7-14,14.3-23.3h-169.2V224.9z"/>
</g>
<g>
	<path fill="#3D3D3D" d="M1464.1,182.6v91.3c0,4.6,1.8,8.4,5.3,11.6c3.5,3.2,7.7,4.7,12.7,4.7s9.2-1.6,12.7-4.7
		c3.5-3.2,5.3-7,5.3-11.6v-91.3H1464.1z"/>
	<path fill="#3D3D3D" d="M1659.6,215.3c7.1-6.4,10.6-14.1,10.6-23.1v-32.7c0-8.9-3.5-16.6-10.6-23c-7.1-6.4-15.5-9.6-25.4-9.6
		h-134.2c-10,0-18.5,3.2-25.5,9.6c-7,6.4-10.5,14.1-10.5,23v0h36v0h134.2v32.7h-123.4c0,9,3.5,16.7,10.6,23.1
		c7,6.4,15.5,9.6,25.4,9.6h38.6l52.9,59.3c3.7,4,8.3,6,13.9,6c4.9,0,9.1-1.6,12.6-4.7c3.6-3.2,5.4-7,5.4-11.6
		c0-3.9-1.4-7.3-4.1-10.3l-34.5-38.7h2.6C1644.1,224.9,1652.6,221.7,1659.6,215.3z"/>
</g>
<g>
	<path fill="#3D3D3D" d="M1890.7,206.6c-10.6-9.6-23.2-14.4-38-14.4H1786c0,9,3.5,16.7,10.6,23.1c7,6.4,15.5,9.6,25.4,9.6h30.7
		c4.9,0,9,1.6,12.6,4.8c3.5,3.2,5.3,7,5.3,11.5c0,4.5-1.8,8.4-5.3,11.5c-3.5,3.2-7.7,4.8-12.6,4.8h-87.4c-0.1,0-0.2,0-0.3,0h-64.6
		c0,9,3.5,16.7,10.6,23.1c7,6.4,15.5,9.6,25.4,9.6h116.3c14.8,0,27.4-4.8,38-14.4c10.6-9.6,15.9-21.1,15.9-34.6
		S1901.3,216.2,1890.7,206.6z"/>
	<path fill="#3D3D3D" d="M1736.4,234.6v-75h170.1c0-8.9-3.5-16.6-10.6-23c-7.1-6.4-15.5-9.6-25.4-9.6h-134.2
		c-9.9,0-18.4,3.2-25.4,9.6c-7,6.4-10.6,14.1-10.6,23v75H1736.4z"/>
</g>
<g>
	<path fill="#3D3D3D" d="M2208.3,159.5c-1.6-9.2-6.4-16.9-14.3-23.2c-7.9-6.3-17.2-9.4-27.8-9.4h-127.1c-10,0-18.5,3.2-25.5,9.6
		c-7,6.4-10.6,14-10.8,23H2208.3z"/>
	<path fill="#3D3D3D" d="M2039.1,224.9h87.5c9.9,0,18.4-3.2,25.4-9.6c7-6.4,10.5-14.1,10.5-23.1h-123.3v-9.8h-36.3v75.1
		c0.1,9.1,3.7,16.8,10.8,23.1c7,6.3,15.5,9.5,25.5,9.5h127.1c10.6,0,19.9-3.1,27.8-9.4c7.9-6.2,12.7-14,14.3-23.3h-169.2V224.9z"/>
</g>
<g>
	<path fill="#3DA8D4" d="M1239.4,453.2v-49.1h125.2c0-6.6-2.6-12.2-7.8-16.9c-5.2-4.7-11.4-7.1-18.7-7.1h-98.7
		c-7.3,0-13.5,2.4-18.7,7.1c-5.2,4.7-7.8,10.4-7.8,16.9v49.1H1239.4z"/>
	<path fill="#3DA8D4" d="M1352.8,438.7c-7.8-7-17.1-10.6-28-10.6h-49c0,6.6,2.6,12.3,7.8,17c5.2,4.7,11.4,7,18.7,7h22.6
		c3.6,0,6.7,1.2,9.3,3.5c2.6,2.3,3.9,5.2,3.9,8.5c0,3.3-1.3,6.1-3.9,8.5c-2.6,2.3-5.7,3.5-9.3,3.5H1274v0h-61.1
		c0,6.6,2.6,12.3,7.8,17c5.2,4.7,11.4,7,18.7,7h85.5c10.9,0,20.2-3.5,28-10.6c7.8-7,11.7-15.5,11.7-25.5
		C1364.5,454.2,1360.6,445.7,1352.8,438.7z"/>
</g>
<g>
	<path fill="#3DA8D4" d="M1572.9,405.2v-1.1c0-6.6-2.6-12.2-7.8-16.9c-5.2-4.7-11.4-7.1-18.7-7.1h-98.7c-7.3,0-13.5,2.4-18.7,7.1
		c-5.2,4.7-7.8,10.4-7.8,16.9v1.1H1572.9z"/>
	<path fill="#3DA8D4" d="M1483.8,428.2v60c0,3.4,1.3,6.2,3.9,8.5c2.6,2.3,5.7,3.5,9.3,3.5c3.7,0,6.8-1.2,9.4-3.5
		c2.6-2.3,3.9-5.2,3.9-8.5v-60H1483.8z"/>
</g>
<path fill="#3CA8D4" d="M1725.1,482.1l-69-92.6c-4.6-6.2-11-9.3-19.3-9.3s-14.7,3.1-19.4,9.3l-29.6,39.8h30.7h2.8h33.7l17.2,23
	h-50.8h-19.9h-30.8l-22.4,30c-1.5,2-2.3,4.2-2.3,6.6c0,3.2,1.2,5.9,3.7,8.2c2.5,2.2,5.5,3.4,9.1,3.4c4.5,0,8.1-1.7,10.6-5.2
	l14.9-19.8h105.1l14.6,19.8c2.5,3.5,6.1,5.2,10.7,5.2c3.5,0,6.5-1.1,9-3.4c2.5-2.2,3.7-5,3.7-8.2
	C1727.3,486.3,1726.6,484.1,1725.1,482.1z"/>
<g>
	<path fill="#3DA8D4" d="M1769,476.1h-26.5v0c0,6.6,2.6,12.3,7.8,17c5.2,4.7,11.4,7,18.7,7h98.7c7.2,0,13.5-2.3,18.7-7
		c5.2-4.7,7.8-10.4,7.8-17L1769,476.1L1769,476.1z"/>
	<path fill="#3DA8D4" d="M1769,453.2v-61c0-3.3-1.3-6.1-3.9-8.5s-5.7-3.5-9.4-3.5s-6.8,1.2-9.4,3.5c-2.6,2.3-3.9,5.2-3.9,8.5v61
		H1769z"/>
</g>
<path fill="#3BA8D4" d="M1148.3,493.1c-5.2,4.7-11.4,7.1-18.7,7.1h-58.1H1031h-26.5v-23h0c0-0.3,0-0.7,0-1v-49h26.5v49h98.7v-72.1
	h-14.7h-7.6H1050h-2.2h-43.4c0-6.6,2.6-12.3,7.8-17c5.2-4.7,11.4-7,18.7-7h16.9h2.2h57.3h7.6h14.7c7.2,0,13.5,2.3,18.7,7
	c5.2,4.7,7.8,10.4,7.8,17v72.1C1156.1,482.8,1153.5,488.4,1148.3,493.1z"/>
</svg>
